<mxfile host="app.diagrams.net" agent="Mozilla/5.0 (Windows NT 10.0; Win64; x64) AppleWebKit/537.36 (KHTML, like Gecko) Chrome/131.0.0.0 Safari/537.36" version="26.0.4">
  <diagram name="Page-1" id="bCev6TGxV7rMNRsL300P">
    <mxGraphModel dx="363" dy="1366" grid="0" gridSize="10" guides="1" tooltips="1" connect="1" arrows="1" fold="1" page="0" pageScale="1" pageWidth="850" pageHeight="1100" math="0" shadow="0">
      <root>
        <mxCell id="0" />
        <mxCell id="1" parent="0" />
        <mxCell id="5-hnpSfQQS_k5lOVA8bx-9" value="Circle" style="swimlane;fontStyle=1;align=center;verticalAlign=top;childLayout=stackLayout;horizontal=1;startSize=26;horizontalStack=0;resizeParent=1;resizeParentMax=0;resizeLast=0;collapsible=1;marginBottom=0;whiteSpace=wrap;html=1;" vertex="1" parent="1">
          <mxGeometry x="67" y="-674" width="313" height="246" as="geometry" />
        </mxCell>
        <mxCell id="5-hnpSfQQS_k5lOVA8bx-10" value="+ radius: float" style="text;strokeColor=none;fillColor=none;align=left;verticalAlign=top;spacingLeft=4;spacingRight=4;overflow=hidden;rotatable=0;points=[[0,0.5],[1,0.5]];portConstraint=eastwest;whiteSpace=wrap;html=1;" vertex="1" parent="5-hnpSfQQS_k5lOVA8bx-9">
          <mxGeometry y="26" width="313" height="26" as="geometry" />
        </mxCell>
        <mxCell id="5-hnpSfQQS_k5lOVA8bx-11" value="" style="line;strokeWidth=1;fillColor=none;align=left;verticalAlign=middle;spacingTop=-1;spacingLeft=3;spacingRight=3;rotatable=0;labelPosition=right;points=[];portConstraint=eastwest;strokeColor=inherit;" vertex="1" parent="5-hnpSfQQS_k5lOVA8bx-9">
          <mxGeometry y="52" width="313" height="8" as="geometry" />
        </mxCell>
        <mxCell id="5-hnpSfQQS_k5lOVA8bx-12" value="+ __init__ (radius)&lt;div&gt;+ get_area( ) : float&lt;/div&gt;&lt;div&gt;+ get_hekef( ) : float&lt;br&gt;&lt;div&gt;+ __add__(self, other)&lt;/div&gt;&lt;div&gt;+ __sub__(self, other)&lt;/div&gt;&lt;div&gt;+ __mul__(self, other)&lt;/div&gt;&lt;div&gt;+ __eq__(self, other)&lt;/div&gt;&lt;div&gt;+ __gt__(self, other)&lt;/div&gt;&lt;div&gt;+ __lt__(self, other)&lt;/div&gt;&lt;div&gt;+ __len__&lt;/div&gt;&lt;div&gt;+ __str__&lt;/div&gt;&lt;div&gt;+ __repr__&lt;/div&gt;&lt;/div&gt;" style="text;strokeColor=none;fillColor=none;align=left;verticalAlign=top;spacingLeft=4;spacingRight=4;overflow=hidden;rotatable=0;points=[[0,0.5],[1,0.5]];portConstraint=eastwest;whiteSpace=wrap;html=1;" vertex="1" parent="5-hnpSfQQS_k5lOVA8bx-9">
          <mxGeometry y="60" width="313" height="186" as="geometry" />
        </mxCell>
      </root>
    </mxGraphModel>
  </diagram>
</mxfile>
